<svg id="b318121f-3c12-4dda-a47a-d632d5b4097d" data-name="wb_favicon" xmlns="http://www.w3.org/2000/svg" viewBox="0 0 886.88 581.75"><title>wb_favicon</title><path d="M691.85,726c-28.61,1.64-41.11,8.88-43.08,28.61-1.32,13.49-3,32.89-3,76.3v37.83c0,56.89-9.21,98.66-37.82,128.26-23,23.35-56.57,33.88-90.45,33.88-30.25,0-58.87-6.58-80.9-23.35-30.26-22.37-44.73-58.87-44.73-116.76V776c0-44.4-4.28-46.7-43.09-50V711.53H480.71V726c-38.48,2.3-42.76,5.26-42.76,50V880.9c0,79.27,33.22,122.68,93.08,122.68,69.72,0,93.73-55.91,93.73-135.83V830.91c0-43.41-1.31-62.49-4-77.61-2.63-18.42-13.81-25-47.68-27.3V711.53H691.85Z" transform="translate(-136.43 -450.83)" style="fill:#d4145a"/><path d="M479.42,727.47c-28.63,1.22-41.23,8.28-43.5,28-1.51,13.46-3.44,32.84-4.08,76.25l-.55,37.82c-.83,56.89-10.66,98.52-39.7,127.69-23.36,23-57.06,33-90.93,32.55-30.26-.45-58.77-7.44-80.56-24.54-29.92-22.8-43.86-59.52-43-117.39l1.69-114.77c.65-44.4-3.59-46.76-42.35-50.62l.21-14.47,131.87,1.93-.21,14.47c-38.51,1.74-42.83,4.64-43.48,49.36l-1.54,104.91c-1.17,79.25,31.41,123.14,91.26,124,69.72,1,94.55-54.53,95.72-134.44l.54-36.83c.64-43.41-.4-62.5-2.81-77.67-2.36-18.45-13.44-25.19-47.28-28l.21-14.47L479.64,713Z" transform="translate(-136.43 -450.83)" style="fill:#d4145a"/><path d="M851.52,720c97.35,12.23,171.79,51.38,171.79,141.31,0,60-34.36,106.44-90.35,135.8-49,25.08-113.89,35.48-189.6,35.48H524.49v-25.69c81.44-5.51,87.8-11.62,87.8-86.87V564.61c0-76.46-4.45-82-79.53-86.86V450.83h252c72.54,0,113.89,10.4,145.71,31.2,33.08,21.41,53.44,60.56,53.44,102.16,0,85-77,119.89-132.34,132.74ZM742.09,708.37c103.07,0,146.33-38.54,146.33-112.56,0-64.23-37.54-115-124.07-115-22.9,0-44.53,4.89-52.8,11-8.27,5.5-10.82,15.9-10.82,43.43V708.37ZM700.73,917.58c0,66.67,18.45,83.8,78.26,83.19,74.44-1.22,141.88-37.93,141.88-130.3,0-89.92-64.9-130.91-180.69-130.91H700.73Z" transform="translate(-136.43 -450.83)" style="fill:#d4145a"/></svg>